<?xml version="1.0" encoding="UTF-8" standalone="no"?>
<!DOCTYPE svg PUBLIC "-//W3C//DTD SVG 1.1//EN" "http://www.w3.org/Graphics/SVG/1.1/DTD/svg11.dtd">
<svg width="100%" height="100%" viewBox="0 0 20 20" version="1.1" xmlns="http://www.w3.org/2000/svg" xmlns:xlink="http://www.w3.org/1999/xlink" xml:space="preserve" xmlns:serif="http://www.serif.com/" style="fill-rule:evenodd;clip-rule:evenodd;stroke-linejoin:round;stroke-miterlimit:2;">
    <g id="black" transform="matrix(0.832731,0,0,0.832731,1.67269,1.67269)">
        <g transform="matrix(1.64462,0,0,1.64462,-8.4275,-6.37107)">
            <circle cx="11.205" cy="9.954" r="7.302" style="fill:rgb(251,252,254);"/>
        </g>
        <g transform="matrix(0.943599,0,0,0.958489,0.564007,0.415106)">
            <path d="M3.985,10.001L3.985,9.999C3.985,8.244 5.429,6.8 7.184,6.8C7.634,6.8 8.079,6.895 8.489,7.078L8.489,2.861L2.219,2.861C2.218,2.861 2.218,2.861 2.217,2.861C1.026,2.861 0.046,3.841 0.046,5.031C0.046,5.032 0.046,5.033 0.046,5.033L0.046,14.967C0.046,16.159 1.027,17.139 2.218,17.139L8.489,17.139L8.489,12.922C8.079,13.105 7.634,13.2 7.184,13.2C5.429,13.2 3.985,11.756 3.985,10.001Z" style="fill:rgb(255,96,63);fill-rule:nonzero;"/>
            <path d="M12.153,2.861L9.358,2.861L9.358,7.849C9.357,8.087 9.161,8.283 8.923,8.283C8.824,8.283 8.727,8.248 8.65,8.186C8.235,7.85 7.717,7.667 7.183,7.667C5.903,7.667 4.85,8.719 4.85,9.999C4.85,11.278 5.903,12.331 7.183,12.331C7.717,12.331 8.235,12.148 8.65,11.812C8.727,11.749 8.824,11.715 8.923,11.715C9.162,11.715 9.358,11.912 9.358,12.15C9.358,12.15 9.358,12.151 9.358,12.151L9.358,17.139L12.152,17.139C13.344,17.139 14.324,16.158 14.325,14.967L14.325,5.033C14.325,3.841 13.344,2.861 12.153,2.861Z" style="fill:rgb(255,96,63);fill-rule:nonzero;"/>
            <path d="M18.726,5.201L15.704,6.569C15.394,6.709 15.194,7.02 15.194,7.36L15.194,12.64C15.194,12.981 15.394,13.291 15.705,13.432L18.726,14.799C18.839,14.85 18.961,14.876 19.085,14.876C19.561,14.876 19.954,14.484 19.954,14.007L19.954,5.992C19.954,5.515 19.561,5.123 19.085,5.123C18.961,5.123 18.839,5.15 18.726,5.201Z" style="fill:rgb(255,96,63);fill-rule:nonzero;"/>
        </g>
    </g>
</svg>
