<svg xmlns="http://www.w3.org/2000/svg" xmlns:xlink="http://www.w3.org/1999/xlink" viewBox="0 0 1280 1280"><defs><linearGradient id="linear-gradient" x1="18.137" y1="359.137" x2="1204.599" y2="1232.888" gradientUnits="userSpaceOnUse"><stop offset="0" stop-color="#1952e3"/><stop offset="1" stop-color="#571cad"/></linearGradient><linearGradient id="linear-gradient-2" x1="121.497" y1="218.785" x2="1307.959" y2="1092.536" xlink:href="#linear-gradient"/><linearGradient id="linear-gradient-3" x1="246.406" y1="49.172" x2="1432.868" y2="922.923" xlink:href="#linear-gradient"/></defs><g id="_18:9" data-name="18:9"><path d="M350.9,640c0-84.8,69.027-153.826,153.824-153.826a153.12,153.12,0,0,1,62.657,13.368v-202.7H266A104.334,104.334,0,0,0,161.567,401.276V878.724A104.4,104.4,0,0,0,266,983.153H567.378v-202.7a154.81,154.81,0,0,1-62.657,13.37C419.924,793.825,350.9,724.8,350.9,640Z" fill="url(#linear-gradient)"/><path d="M743.445,296.847H609.15V536.615A20.9,20.9,0,0,1,575.106,552.8,112.062,112.062,0,0,0,392.668,640c0,61.717,50.335,112.052,112.053,112.052a111.628,111.628,0,0,0,70.385-24.96,20.9,20.9,0,0,1,34.044,16.292V983.153h134.3A104.467,104.467,0,0,0,847.874,878.724V401.276A104.4,104.4,0,0,0,743.445,296.847Z" fill="url(#linear-gradient-2)"/><path d="M1059.433,409.308,914.19,475.063a41.774,41.774,0,0,0-24.545,38.055l0,253.761a41.773,41.773,0,0,0,24.55,38.055l145.239,65.725a41.772,41.772,0,0,0,58.994-38.056V447.362A41.772,41.772,0,0,0,1059.433,409.308Z" fill="url(#linear-gradient-3)"/></g></svg>